<?xml version="1.0" standalone="no"?><!DOCTYPE svg PUBLIC "-//W3C//DTD SVG 1.1//EN" "http://www.w3.org/Graphics/SVG/1.1/DTD/svg11.dtd"><svg t="1564582373809" class="icon" viewBox="0 0 1024 1024" version="1.1" xmlns="http://www.w3.org/2000/svg" p-id="4891" xmlns:xlink="http://www.w3.org/1999/xlink" width="200" height="200"><defs><style type="text/css"></style></defs><path d="M988.89728 285.17376c-21.48352 45.45536-116.28032 264.3456-129.2032 284.61056-1.51552 2.39616-2.89792 4.76672-4.21888 6.99904-12.58496 21.57568-25.8816 38.08256-71.808 38.08256L345.94304 614.86592c9.20064 27.86816 28.27264 62.26432 68.01408 62.26432l378.94144 0c11.22304 0 20.29056 9.09824 20.29056 20.29568s-9.06752 20.29056-20.29056 20.29056L413.96224 717.71648c-56.2432 0-97.26976-44.03712-112.62464-111.50336-8.45312-37.20704-111.0016-380.3904-118.33856-407.28064-7.87968-17.0752-26.17856-29.35296-43.96544-29.35296L45.71136 169.57952c-11.19744 0-20.29056-9.09824-20.29056-20.29056 0-11.19744 9.09824-20.25984 20.29056-20.25984l93.31712 0c34.80064 0 67.64032 1.85856 81.78176 34.83648 0.36864 0.87552 0.67584 1.72032 0.9472 2.66752 4.02432 14.7456 89.05216 316.26752 113.30048 407.78752l448.60416 0c26.3168 0 28.9536-4.5056 36.76672-17.96608 1.59232-2.69824 3.21536-5.46816 5.0432-8.35072 12.03712-18.90304 106.12736-236.51328 126.18752-278.82496 8.35584-21.88288 6.83008-33.792 4.5312-37.1712-1.52064-2.16064-6.35904-3.4816-12.98432-3.4816-43.96544 0.64-601.14432 0.03072-620.48768 0-11.22304-0.03072-20.29056-9.09824-20.25984-20.29056 0.03072-11.22816 9.09312-20.25984 20.29056-20.25984l0.03072 0c4.76672 0 576.21504 0.67584 620.14976 0 26.7264 0 40.14592 11.4688 46.7456 21.10464C1001.81504 226.7648 1001.54368 252.40064 988.89728 285.17376L988.89728 285.17376zM403.20512 737.83808c52.25472 0 94.7712 42.51136 94.7712 94.7712 0 52.25472-42.51648 94.80192-94.7712 94.80192s-94.76608-42.5472-94.76608-94.80192C308.46976 780.3904 350.9504 737.83808 403.20512 737.83808L403.20512 737.83808zM403.20512 888.47872c30.77632 0 55.808-25.0624 55.808-55.83872 0-30.77632-25.03168-55.80288-55.808-55.80288-30.74048 0-55.77216 25.03168-55.77216 55.80288C347.43296 863.42144 372.46464 888.47872 403.20512 888.47872L403.20512 888.47872z" p-id="4892" fill="#ffffff"></path><path d="M788.77184 737.83808c52.25472 0 94.7712 42.51136 94.7712 94.7712 0 52.25472-42.51648 94.80192-94.7712 94.80192s-94.7712-42.5472-94.7712-94.80192C694.03648 780.3904 736.51712 737.83808 788.77184 737.83808L788.77184 737.83808zM788.77184 888.47872c30.77632 0 55.80288-25.0624 55.80288-55.83872 0-30.77632-25.03168-55.80288-55.80288-55.80288-30.7456 0-55.77216 25.03168-55.77216 55.80288C732.99968 863.42144 758.02624 888.47872 788.77184 888.47872L788.77184 888.47872z" p-id="4893" fill="#ffffff"></path></svg>